<mxfile host="app.diagrams.net" agent="Mozilla/5.0 (Windows NT 10.0; Win64; x64) AppleWebKit/537.36 (KHTML, like Gecko) Chrome/130.0.0.0 Safari/537.36 Edg/130.0.0.0" version="24.8.3">
  <diagram name="Page-1" id="1JEX0hQLATs790ZjT5QR">
    <mxGraphModel dx="1145" dy="773" grid="1" gridSize="10" guides="1" tooltips="1" connect="1" arrows="1" fold="1" page="1" pageScale="1" pageWidth="850" pageHeight="1100" math="0" shadow="0">
      <root>
        <mxCell id="0" />
        <mxCell id="1" parent="0" />
        <mxCell id="Q4VQRPdhQiKNOPKgzBo6-1" value="" style="strokeWidth=1;shadow=0;dashed=0;align=center;html=1;shape=mxgraph.mockup.containers.browserWindow;rSize=0;strokeColor=#666666;strokeColor2=#008cff;strokeColor3=#c4c4c4;mainText=,;recursiveResize=0;" vertex="1" parent="1">
          <mxGeometry x="40" y="110" width="760" height="800" as="geometry" />
        </mxCell>
        <mxCell id="Q4VQRPdhQiKNOPKgzBo6-2" value="Page 1" style="strokeWidth=1;shadow=0;dashed=0;align=center;html=1;shape=mxgraph.mockup.containers.anchor;fontSize=17;fontColor=#666666;align=left;whiteSpace=wrap;" vertex="1" parent="Q4VQRPdhQiKNOPKgzBo6-1">
          <mxGeometry x="60" y="12" width="110" height="26" as="geometry" />
        </mxCell>
        <mxCell id="Q4VQRPdhQiKNOPKgzBo6-3" value="https://www.simplegames.com" style="strokeWidth=1;shadow=0;dashed=0;align=center;html=1;shape=mxgraph.mockup.containers.anchor;rSize=0;fontSize=17;fontColor=#666666;align=left;" vertex="1" parent="Q4VQRPdhQiKNOPKgzBo6-1">
          <mxGeometry x="130" y="60" width="250" height="26" as="geometry" />
        </mxCell>
        <mxCell id="Q4VQRPdhQiKNOPKgzBo6-8" value="Login Form" style="strokeWidth=1;shadow=0;dashed=0;align=center;html=1;shape=mxgraph.mockup.containers.rrect;rSize=0;strokeColor=#666666;fontColor=#666666;fontSize=17;verticalAlign=top;whiteSpace=wrap;fillColor=#ffffff;spacingTop=32;" vertex="1" parent="Q4VQRPdhQiKNOPKgzBo6-1">
          <mxGeometry x="255" y="330" width="250" height="140" as="geometry" />
        </mxCell>
        <mxCell id="Q4VQRPdhQiKNOPKgzBo6-9" value="Login" style="strokeWidth=1;shadow=0;dashed=0;align=center;html=1;shape=mxgraph.mockup.containers.rrect;rSize=0;fontSize=17;fontColor=#666666;strokeColor=#666666;align=left;spacingLeft=8;fillColor=none;resizeWidth=1;whiteSpace=wrap;" vertex="1" parent="Q4VQRPdhQiKNOPKgzBo6-8">
          <mxGeometry width="250" height="30" relative="1" as="geometry" />
        </mxCell>
        <mxCell id="Q4VQRPdhQiKNOPKgzBo6-10" value="" style="shape=ellipse;strokeColor=#008cff;resizable=0;fillColor=none;html=1;" vertex="1" parent="Q4VQRPdhQiKNOPKgzBo6-9">
          <mxGeometry x="1" y="0.5" width="20" height="20" relative="1" as="geometry">
            <mxPoint x="-25" y="-10" as="offset" />
          </mxGeometry>
        </mxCell>
        <mxCell id="Q4VQRPdhQiKNOPKgzBo6-11" value="Cancel" style="strokeWidth=1;shadow=0;dashed=0;align=center;html=1;shape=mxgraph.mockup.containers.rrect;rSize=0;fontSize=16;fontColor=#666666;strokeColor=#c4c4c4;whiteSpace=wrap;fillColor=none;" vertex="1" parent="Q4VQRPdhQiKNOPKgzBo6-8">
          <mxGeometry x="0.25" y="1" width="90" height="25" relative="1" as="geometry">
            <mxPoint x="-45" y="-33" as="offset" />
          </mxGeometry>
        </mxCell>
        <mxCell id="Q4VQRPdhQiKNOPKgzBo6-12" value="OK" style="strokeWidth=1;shadow=0;dashed=0;align=center;html=1;shape=mxgraph.mockup.containers.rrect;rSize=0;fontSize=16;fontColor=#666666;strokeColor=#c4c4c4;whiteSpace=wrap;fillColor=none;" vertex="1" parent="Q4VQRPdhQiKNOPKgzBo6-8">
          <mxGeometry x="0.75" y="1" width="90" height="25" relative="1" as="geometry">
            <mxPoint x="-45" y="-33" as="offset" />
          </mxGeometry>
        </mxCell>
        <mxCell id="Q4VQRPdhQiKNOPKgzBo6-7" value="&lt;b&gt;&lt;font style=&quot;font-size: 18px;&quot;&gt;Home Page&lt;/font&gt;&lt;/b&gt;" style="text;html=1;align=center;verticalAlign=middle;whiteSpace=wrap;rounded=0;" vertex="1" parent="1">
          <mxGeometry x="40" y="40" width="760" height="30" as="geometry" />
        </mxCell>
      </root>
    </mxGraphModel>
  </diagram>
</mxfile>
